<svg width="14" height="13" viewBox="0 0 14 13" fill="none" xmlns="http://www.w3.org/2000/svg">
<path d="M6.99967 7.58342C7.61851 7.58342 8.21201 7.33758 8.64959 6.9C9.08717 6.46241 9.33301 5.86892 9.33301 5.25008C9.33301 4.63124 9.08717 4.03775 8.64959 3.60017C8.21201 3.16258 7.61851 2.91675 6.99967 2.91675C6.38084 2.91675 5.78734 3.16258 5.34976 3.60017C4.91217 4.03775 4.66634 4.63124 4.66634 5.25008C4.66634 5.86892 4.91217 6.46241 5.34976 6.9C5.78734 7.33758 6.38084 7.58342 6.99967 7.58342ZM6.99967 7.58342C6.07142 7.58342 5.18118 7.95216 4.5248 8.60854C3.86842 9.26492 3.49967 10.1552 3.49967 11.0834V12.8334M6.99967 7.58342C7.92793 7.58342 8.81817 7.95216 9.47455 8.60854C10.1309 9.26492 10.4997 10.1552 10.4997 11.0834V12.8334M7.58301 2.91675C7.81867 1.94608 8.75842 1.16675 9.91634 1.16675C11.1833 1.16675 12.238 2.21091 12.2497 3.50008C12.238 4.78925 11.1833 5.83342 9.91634 5.83342M9.91634 5.83342H9.33301M9.91634 5.83342C11.8343 5.83342 13.4163 7.40025 13.4163 9.33342V10.5001M6.41634 2.91675C6.18067 1.94608 5.24092 1.16675 4.08301 1.16675C2.81601 1.16675 1.76134 2.21091 1.74967 3.50008C1.76134 4.78925 2.81601 5.83342 4.08301 5.83342M4.08301 5.83342H4.66634M4.08301 5.83342C2.16501 5.83342 0.583008 7.40025 0.583008 9.33342V10.5001" stroke="white"/>
</svg>
