<svg width="30" height="30" viewBox="0 0 28 48" fill="none" xmlns="http://www.w3.org/2000/svg">
<path d="M21.8125 46.75L0.750008 25.75C0.500008 25.5 0.322508 25.2292 0.217508 24.9375C0.112508 24.6458 0.0608419 24.3333 0.0625085 24C0.0625085 23.6667 0.115009 23.3542 0.220009 23.0625C0.325009 22.7708 0.501675 22.5 0.750008 22.25L21.8125 1.1875C22.3958 0.604166 23.125 0.3125 24 0.3125C24.875 0.3125 25.625 0.625 26.25 1.25C26.875 1.875 27.1875 2.60417 27.1875 3.4375C27.1875 4.27083 26.875 5 26.25 5.625L7.87501 24L26.25 42.375C26.8333 42.9583 27.125 43.6775 27.125 44.5325C27.125 45.3875 26.8125 46.1267 26.1875 46.75C25.5625 47.375 24.8333 47.6875 24 47.6875C23.1667 47.6875 22.4375 47.375 21.8125 46.75Z" fill="white"/>
</svg>
