<svg width="75" height="53" viewBox="0 0 75 53" fill="none" xmlns="http://www.w3.org/2000/svg">
<g clip-path="url(#clip0_207_53)">
<path fill-rule="evenodd" clip-rule="evenodd" d="M52.63 19.97L74.17 7.53C74.3 7.47 74.45 7.5 74.55 7.66C74.58 7.69 74.58 7.75 74.58 7.79V52.23C74.58 52.39 74.45 52.51 74.3 52.51C74.24 52.51 74.21 52.48 74.14 52.45L52.63 40.03V46.3C52.63 46.84 52.41 47.31 52.06 47.65C51.71 48 51.24 48.22 50.7 48.22C34.45 48.22 18.2 48.22 1.91 48.22C1.41 48.22 0.9 48 0.56 47.65C0.22 47.31 0 46.83 0 46.3V13.7C0 13.16 0.22 12.69 0.57 12.31C0.92 12 1.36 11.78 1.83 11.78C3.34 15.97 7.34 18.99 12.07 18.99C15.28 18.99 18.21 17.57 20.2 15.34C22.18 17.58 25.11 18.99 28.33 18.99C33.05 18.99 37.09 15.97 38.57 11.75H50.73C51.27 11.75 51.74 11.97 52.09 12.32C52.44 12.7 52.66 13.17 52.66 13.71V19.97H52.63ZM12.06 0C16.34 0 19.87 3.31 20.19 7.5C20.5 3.31 24.03 0 28.31 0C32.81 0 36.47 3.65 36.47 8.16C36.47 12.66 32.82 16.32 28.31 16.32C24.03 16.32 20.5 13.01 20.18 8.79C19.87 13.01 16.34 16.32 12.05 16.32C7.55 16.32 3.89 12.67 3.89 8.16C3.91 3.65 7.56 0 12.06 0ZM7.68 25.29H34.86C36.21 25.29 37.29 26.39 37.29 27.71V32.28C37.29 33.6 36.22 34.7 34.86 34.7H7.68C6.36 34.7 5.25 33.6 5.25 32.28V27.71C5.26 26.39 6.36 25.29 7.68 25.29Z" fill="#3C3229"/>
</g>
<defs>
<clipPath id="clip0_207_53">
<rect width="74.58" height="52.5" fill="white"/>
</clipPath>
</defs>
</svg>
