<svg width="16" height="16" viewBox="0 0 16 16" fill="none" xmlns="http://www.w3.org/2000/svg">
<path d="M12 8H8V3M0.5 8C0.5 8.98491 0.693993 9.96018 1.0709 10.8701C1.44781 11.7801 2.00026 12.6069 2.6967 13.3033C3.39314 13.9997 4.21993 14.5522 5.12987 14.9291C6.03982 15.306 7.01509 15.5 8 15.5C8.98491 15.5 9.96018 15.306 10.8701 14.9291C11.7801 14.5522 12.6069 13.9997 13.3033 13.3033C13.9997 12.6069 14.5522 11.7801 14.9291 10.8701C15.306 9.96018 15.5 8.98491 15.5 8C15.5 7.01509 15.306 6.03982 14.9291 5.12987C14.5522 4.21993 13.9997 3.39314 13.3033 2.6967C12.6069 2.00026 11.7801 1.44781 10.8701 1.0709C9.96018 0.693993 8.98491 0.5 8 0.5C7.01509 0.5 6.03982 0.693993 5.12987 1.0709C4.21993 1.44781 3.39314 2.00026 2.6967 2.6967C2.00026 3.39314 1.44781 4.21993 1.0709 5.12987C0.693993 6.03982 0.5 7.01509 0.5 8Z" stroke="white" stroke-linecap="round" stroke-linejoin="round"/>
</svg>
