<svg width="18" height="16" viewBox="0 0 18 16" fill="none" xmlns="http://www.w3.org/2000/svg">
<path d="M1.99949 12.6519C1.99967 13.4359 2.61675 14.1015 3.41616 14.1015H14.5837C14.853 14.1015 15.1142 14.023 15.3384 13.8786L15.3385 13.8787L15.3445 13.8747C15.6598 13.6652 15.8822 13.3421 15.9652 12.9727C16.0483 12.6034 15.9856 12.2163 15.7903 11.8919L10.207 2.59078C10.2069 2.59063 10.2068 2.59048 10.2067 2.59034C10.0942 2.40243 9.94023 2.24279 9.75648 2.12367L9.63239 2.04322H9.61328C9.49274 1.98413 9.36406 1.94259 9.23114 1.92011C9.04491 1.88862 8.85422 1.89521 8.67061 1.93947C8.48699 1.98374 8.31426 2.06477 8.16283 2.17766C8.01249 2.28975 7.88625 2.43095 7.79163 2.59282L2.20913 11.8925L2.20877 11.8932C2.07157 12.1224 1.99924 12.3847 1.99949 12.6519ZM1.99949 12.6519C1.99949 12.6518 1.99949 12.6517 1.99949 12.6515H2.49949L1.99949 12.6521C1.99949 12.652 1.99949 12.652 1.99949 12.6519ZM10.9049 2.1013L10.905 2.10142L16.4892 11.4023L16.4892 11.4024C17.1564 12.513 16.8223 13.9683 15.7659 14.6497L15.7652 14.6502C15.4134 14.878 15.0032 14.9995 14.584 14.9999H3.41533C2.19068 14.9999 1.16699 13.9658 1.16699 12.6507C1.16699 12.2085 1.2867 11.7766 1.51077 11.4021C1.51085 11.4019 1.51093 11.4018 1.51102 11.4017L7.09565 2.10145L7.09571 2.10134C7.75602 1.00105 9.13649 0.676536 10.1818 1.35087L10.1819 1.35092C10.4731 1.53873 10.7212 1.79508 10.9049 2.1013ZM9.00033 11.6665C8.91192 11.6665 8.82714 11.6314 8.76462 11.5689C8.70211 11.5064 8.66699 11.4216 8.66699 11.3332C8.66699 11.2448 8.70211 11.16 8.76462 11.0975C8.82714 11.035 8.91192 10.9999 9.00033 10.9999C9.08873 10.9999 9.17351 11.035 9.23603 11.0975C9.29854 11.16 9.33366 11.2448 9.33366 11.3332C9.33366 11.4216 9.29854 11.5064 9.23603 11.5689C9.17351 11.6314 9.08873 11.6665 9.00033 11.6665ZM9.00033 5.16655C9.08873 5.16655 9.17351 5.20167 9.23603 5.26418C9.29854 5.32669 9.33366 5.41148 9.33366 5.49988V8.83322C9.33366 8.92162 9.29854 9.00641 9.23603 9.06892C9.17351 9.13143 9.08873 9.16655 9.00033 9.16655C8.91192 9.16655 8.82714 9.13143 8.76462 9.06892C8.70211 9.00641 8.66699 8.92162 8.66699 8.83322V5.49988C8.66699 5.41148 8.70211 5.32669 8.76462 5.26418C8.82714 5.20167 8.91192 5.16655 9.00033 5.16655Z" stroke="black"/>
</svg>
