<svg width="12" height="12" viewBox="0 0 12 12" fill="none" xmlns="http://www.w3.org/2000/svg">
<path d="M6 7.16667C5.83472 7.16667 5.69628 7.11067 5.58467 6.99867C5.47267 6.88706 5.41667 6.74862 5.41667 6.58334C5.41667 6.41806 5.47267 6.27942 5.58467 6.16742C5.69628 6.05581 5.83472 6.00001 6 6.00001C6.16528 6.00001 6.30392 6.05581 6.41592 6.16742C6.52753 6.27942 6.58333 6.41806 6.58333 6.58334C6.58333 6.74862 6.52753 6.88706 6.41592 6.99867C6.30392 7.11067 6.16528 7.16667 6 7.16667ZM3.66667 7.16667C3.50139 7.16667 3.36275 7.11067 3.25075 6.99867C3.13914 6.88706 3.08333 6.74862 3.08333 6.58334C3.08333 6.41806 3.13914 6.27942 3.25075 6.16742C3.36275 6.05581 3.50139 6.00001 3.66667 6.00001C3.83194 6.00001 3.97058 6.05581 4.08258 6.16742C4.19419 6.27942 4.25 6.41806 4.25 6.58334C4.25 6.74862 4.19419 6.88706 4.08258 6.99867C3.97058 7.11067 3.83194 7.16667 3.66667 7.16667ZM8.33333 7.16667C8.16806 7.16667 8.02961 7.11067 7.918 6.99867C7.806 6.88706 7.75 6.74862 7.75 6.58334C7.75 6.41806 7.806 6.27942 7.918 6.16742C8.02961 6.05581 8.16806 6.00001 8.33333 6.00001C8.49861 6.00001 8.63706 6.05581 8.74867 6.16742C8.86067 6.27942 8.91667 6.41806 8.91667 6.58334C8.91667 6.74862 8.86067 6.88706 8.74867 6.99867C8.63706 7.11067 8.49861 7.16667 8.33333 7.16667ZM6 9.50001C5.83472 9.50001 5.69628 9.44401 5.58467 9.33201C5.47267 9.22039 5.41667 9.08195 5.41667 8.91667C5.41667 8.75139 5.47267 8.61295 5.58467 8.50134C5.69628 8.38934 5.83472 8.33334 6 8.33334C6.16528 8.33334 6.30392 8.38934 6.41592 8.50134C6.52753 8.61295 6.58333 8.75139 6.58333 8.91667C6.58333 9.08195 6.52753 9.22039 6.41592 9.33201C6.30392 9.44401 6.16528 9.50001 6 9.50001ZM3.66667 9.50001C3.50139 9.50001 3.36275 9.44401 3.25075 9.33201C3.13914 9.22039 3.08333 9.08195 3.08333 8.91667C3.08333 8.75139 3.13914 8.61295 3.25075 8.50134C3.36275 8.38934 3.50139 8.33334 3.66667 8.33334C3.83194 8.33334 3.97058 8.38934 4.08258 8.50134C4.19419 8.61295 4.25 8.75139 4.25 8.91667C4.25 9.08195 4.19419 9.22039 4.08258 9.33201C3.97058 9.44401 3.83194 9.50001 3.66667 9.50001ZM8.33333 9.50001C8.16806 9.50001 8.02961 9.44401 7.918 9.33201C7.806 9.22039 7.75 9.08195 7.75 8.91667C7.75 8.75139 7.806 8.61295 7.918 8.50134C8.02961 8.38934 8.16806 8.33334 8.33333 8.33334C8.49861 8.33334 8.63706 8.38934 8.74867 8.50134C8.86067 8.61295 8.91667 8.75139 8.91667 8.91667C8.91667 9.08195 8.86067 9.22039 8.74867 9.33201C8.63706 9.44401 8.49861 9.50001 8.33333 9.50001ZM1.91667 11.8333C1.59583 11.8333 1.32108 11.7192 1.09242 11.4909C0.864139 11.2623 0.75 10.9875 0.75 10.6667V2.50001C0.75 2.17917 0.864139 1.90462 1.09242 1.67634C1.32108 1.44767 1.59583 1.33334 1.91667 1.33334H2.5V0.166672H3.66667V1.33334H8.33333V0.166672H9.5V1.33334H10.0833C10.4042 1.33334 10.6789 1.44767 10.9076 1.67634C11.1359 1.90462 11.25 2.17917 11.25 2.50001V10.6667C11.25 10.9875 11.1359 11.2623 10.9076 11.4909C10.6789 11.7192 10.4042 11.8333 10.0833 11.8333H1.91667ZM1.91667 10.6667H10.0833V4.83334H1.91667V10.6667Z" fill="#A3A3A3"/>
</svg>
