<svg width="12" height="10" viewBox="0 0 12 10" fill="none" xmlns="http://www.w3.org/2000/svg">
<path d="M1.33329 9.66667C1.01246 9.66667 0.737904 9.55253 0.509626 9.32425C0.280959 9.09559 0.166626 8.82084 0.166626 8.5V1.5C0.166626 1.17917 0.280959 0.904614 0.509626 0.676336C0.737904 0.447669 1.01246 0.333336 1.33329 0.333336H10.6666C10.9875 0.333336 11.2622 0.447669 11.4909 0.676336C11.7192 0.904614 11.8333 1.17917 11.8333 1.5V8.5C11.8333 8.82084 11.7192 9.09559 11.4909 9.32425C11.2622 9.55253 10.9875 9.66667 10.6666 9.66667H1.33329ZM5.99996 5.48125C6.04857 5.48125 6.09951 5.47386 6.15279 5.45909C6.20646 5.4447 6.2576 5.42292 6.30621 5.39375L10.4333 2.8125C10.5111 2.76389 10.5694 2.70323 10.6083 2.6305C10.6472 2.55739 10.6666 2.47709 10.6666 2.38959C10.6666 2.19514 10.584 2.04931 10.4187 1.95209C10.2534 1.85486 10.0833 1.85972 9.90829 1.96667L5.99996 4.41667L2.09163 1.96667C1.91663 1.85972 1.74649 1.8572 1.58121 1.95909C1.41593 2.06136 1.33329 2.20486 1.33329 2.38959C1.33329 2.48681 1.35274 2.57178 1.39163 2.6445C1.43051 2.71761 1.48885 2.77361 1.56663 2.8125L5.69371 5.39375C5.74232 5.42292 5.79346 5.4447 5.84713 5.45909C5.9004 5.47386 5.95135 5.48125 5.99996 5.48125Z" fill="#A3A3A3"/>
</svg>
