<svg width="10" height="13" viewBox="0 0 10 13" fill="none" xmlns="http://www.w3.org/2000/svg">
<path d="M1.26567 12.8333C0.94524 12.8333 0.671028 12.7192 0.443035 12.4909C0.214654 12.2623 0.100464 11.9875 0.100464 11.6667V5.83334C0.100464 5.51251 0.214654 5.23776 0.443035 5.00909C0.671028 4.78082 0.94524 4.66668 1.26567 4.66668H1.84828V3.50001C1.84828 2.69307 2.13239 2.00512 2.70063 1.43618C3.26847 0.867621 3.95536 0.583344 4.7613 0.583344C5.56723 0.583344 6.25432 0.867621 6.82255 1.43618C7.3904 2.00512 7.67432 2.69307 7.67432 3.50001V4.66668H8.25692C8.57736 4.66668 8.85176 4.78082 9.08014 5.00909C9.30814 5.23776 9.42213 5.51251 9.42213 5.83334V11.6667C9.42213 11.9875 9.30814 12.2623 9.08014 12.4909C8.85176 12.7192 8.57736 12.8333 8.25692 12.8333H1.26567ZM4.7613 9.91668C5.08173 9.91668 5.35614 9.80254 5.58452 9.57426C5.81251 9.34559 5.92651 9.07084 5.92651 8.75001C5.92651 8.42918 5.81251 8.15443 5.58452 7.92576C5.35614 7.69748 5.08173 7.58334 4.7613 7.58334C4.44087 7.58334 4.16665 7.69748 3.93866 7.92576C3.71028 8.15443 3.59609 8.42918 3.59609 8.75001C3.59609 9.07084 3.71028 9.34559 3.93866 9.57426C4.16665 9.80254 4.44087 9.91668 4.7613 9.91668ZM3.01348 4.66668H6.50911V3.50001C6.50911 3.0139 6.33918 2.6007 5.99933 2.26043C5.65948 1.92015 5.2468 1.75001 4.7613 1.75001C4.27579 1.75001 3.86312 1.92015 3.52326 2.26043C3.18341 2.6007 3.01348 3.0139 3.01348 3.50001V4.66668Z" fill="#A3A3A3"/>
</svg>
