<svg width="12" height="11" viewBox="0 0 12 11" fill="none" xmlns="http://www.w3.org/2000/svg">
<path d="M5.99996 0C6.7072 0 7.38548 0.280951 7.88558 0.781048C8.38567 1.28115 8.66663 1.95942 8.66663 2.66667C8.66663 3.37391 8.38567 4.05219 7.88558 4.55229C7.38548 5.05238 6.7072 5.33333 5.99996 5.33333C5.29272 5.33333 4.61444 5.05238 4.11434 4.55229C3.61424 4.05219 3.33329 3.37391 3.33329 2.66667C3.33329 1.95942 3.61424 1.28115 4.11434 0.781048C4.61444 0.280951 5.29272 0 5.99996 0ZM5.99996 6.66667C8.94663 6.66667 11.3333 7.86 11.3333 9.33333V10.6667H0.666626V9.33333C0.666626 7.86 3.05329 6.66667 5.99996 6.66667Z" fill="#A3A3A3"/>
</svg>
