<svg width="16" height="10" viewBox="0 0 16 10" fill="none" xmlns="http://www.w3.org/2000/svg">
<path fill-rule="evenodd" clip-rule="evenodd" d="M0 2C0 1.46957 0.210714 0.960859 0.585786 0.585786C0.960859 0.210714 1.46957 1.38512e-08 2 1.38512e-08H9.5C9.98509 -5.7048e-05 10.4537 0.176193 10.8185 0.495928C11.1833 0.815663 11.4195 1.25709 11.483 1.738L14.593 0.356C14.7452 0.288172 14.912 0.259464 15.0781 0.272485C15.2443 0.285507 15.4045 0.339846 15.5443 0.430562C15.6841 0.521279 15.7991 0.645496 15.8786 0.791924C15.9582 0.938351 15.9999 1.10235 16 1.269V8.731C15.9999 8.89752 15.9581 9.06138 15.8786 9.20768C15.7991 9.35399 15.6843 9.47813 15.5446 9.56882C15.4049 9.65951 15.2448 9.71388 15.0788 9.72701C14.9128 9.74014 14.7462 9.71161 14.594 9.644L11.483 8.262C11.4195 8.74291 11.1833 9.18434 10.8185 9.50407C10.4537 9.82381 9.98509 10.0001 9.5 10H2C1.46957 10 0.960859 9.78929 0.585786 9.41421C0.210714 9.03914 0 8.53043 0 8V2ZM11.5 7.175L15 8.731V1.269L11.5 2.825V7.175ZM2 1C1.73478 1 1.48043 1.10536 1.29289 1.29289C1.10536 1.48043 1 1.73478 1 2V8C1 8.26522 1.10536 8.51957 1.29289 8.70711C1.48043 8.89464 1.73478 9 2 9H9.5C9.76522 9 10.0196 8.89464 10.2071 8.70711C10.3946 8.51957 10.5 8.26522 10.5 8V2C10.5 1.73478 10.3946 1.48043 10.2071 1.29289C10.0196 1.10536 9.76522 1 9.5 1H2Z" fill="white"/>
</svg>
