<svg width="9" height="12" viewBox="0 0 9 12" fill="none" xmlns="http://www.w3.org/2000/svg">
<path d="M7.75002 0.75H5.87502C5.77556 0.75 5.68018 0.789509 5.60985 0.859835C5.53952 0.930161 5.50002 1.02554 5.50002 1.125C5.50002 1.22446 5.53952 1.31984 5.60985 1.39017C5.68018 1.46049 5.77556 1.5 5.87502 1.5H6.84533L5.70158 2.64375C5.32377 2.31902 4.8751 2.08737 4.39158 1.96739C3.90806 1.84741 3.40314 1.84243 2.91735 1.95286C2.43156 2.06329 1.97841 2.28605 1.59427 2.60327C1.21014 2.92049 0.905701 3.32333 0.705396 3.77947C0.505091 4.23562 0.414494 4.73236 0.440873 5.22985C0.467253 5.72733 0.609875 6.21171 0.857295 6.64411C1.10472 7.07652 1.45004 7.44491 1.86558 7.71972C2.28111 7.99454 2.75527 8.16813 3.25002 8.22656V9.1875H2.12502C2.02556 9.1875 1.93018 9.22701 1.85985 9.29733C1.78952 9.36766 1.75002 9.46304 1.75002 9.5625C1.75002 9.66196 1.78952 9.75734 1.85985 9.82767C1.93018 9.89799 2.02556 9.9375 2.12502 9.9375H3.25002V10.875C3.25002 10.9745 3.28952 11.0698 3.35985 11.1402C3.43018 11.2105 3.52556 11.25 3.62502 11.25C3.72447 11.25 3.81985 11.2105 3.89018 11.1402C3.96051 11.0698 4.00002 10.9745 4.00002 10.875V9.9375H5.12502C5.22447 9.9375 5.31985 9.89799 5.39018 9.82767C5.46051 9.75734 5.50002 9.66196 5.50002 9.5625C5.50002 9.46304 5.46051 9.36766 5.39018 9.29733C5.31985 9.22701 5.22447 9.1875 5.12502 9.1875H4.00002V8.22656C4.55162 8.16219 5.07678 7.95461 5.52333 7.62444C5.96987 7.29427 6.32226 6.85301 6.54547 6.3445C6.76869 5.83598 6.85497 5.27791 6.79574 4.72573C6.7365 4.17355 6.53382 3.64648 6.20783 3.19687L7.37502 2.02969V3C7.37502 3.09946 7.41452 3.19484 7.48485 3.26516C7.55518 3.33549 7.65056 3.375 7.75002 3.375C7.84947 3.375 7.94485 3.33549 8.01518 3.26516C8.08551 3.19484 8.12502 3.09946 8.12502 3V1.125C8.12502 1.02554 8.08551 0.930161 8.01518 0.859835C7.94485 0.789509 7.84947 0.75 7.75002 0.75ZM3.62502 7.5C3.14292 7.5 2.67166 7.35704 2.27081 7.08921C1.86997 6.82137 1.55755 6.44069 1.37306 5.99529C1.18857 5.5499 1.1403 5.0598 1.23435 4.58697C1.3284 4.11414 1.56055 3.67982 1.90144 3.33893C2.24233 2.99804 2.67665 2.76589 3.14948 2.67184C3.62231 2.57778 4.11241 2.62606 4.55781 2.81054C5.0032 2.99503 5.38389 3.30745 5.65172 3.7083C5.91956 4.10914 6.06252 4.58041 6.06252 5.0625C6.06252 5.70897 5.80571 6.32895 5.34859 6.78607C4.89147 7.24319 4.27148 7.5 3.62502 7.5Z" fill="#949494"/>
</svg>
