<svg width="14" height="13" viewBox="0 0 14 13" fill="none" xmlns="http://www.w3.org/2000/svg">
<path d="M6.99992 7.58334C7.61876 7.58334 8.21225 7.3375 8.64983 6.89992C9.08742 6.46233 9.33325 5.86884 9.33325 5.25C9.33325 4.63116 9.08742 4.03767 8.64983 3.60009C8.21225 3.1625 7.61876 2.91667 6.99992 2.91667C6.38108 2.91667 5.78759 3.1625 5.35 3.60009C4.91242 4.03767 4.66659 4.63116 4.66659 5.25C4.66659 5.86884 4.91242 6.46233 5.35 6.89992C5.78759 7.3375 6.38108 7.58334 6.99992 7.58334ZM6.99992 7.58334C6.07166 7.58334 5.18142 7.95208 4.52504 8.60846C3.86867 9.26484 3.49992 10.1551 3.49992 11.0833V12.8333M6.99992 7.58334C7.92818 7.58334 8.81842 7.95208 9.47479 8.60846C10.1312 9.26484 10.4999 10.1551 10.4999 11.0833V12.8333M7.58325 2.91667C7.81892 1.946 8.75867 1.16667 9.91658 1.16667C11.1836 1.16667 12.2383 2.21083 12.2499 3.5C12.2383 4.78917 11.1836 5.83333 9.91658 5.83333M9.91658 5.83333H9.33325M9.91658 5.83333C11.8346 5.83333 13.4166 7.40017 13.4166 9.33334V10.5M6.41659 2.91667C6.18092 1.946 5.24117 1.16667 4.08325 1.16667C2.81625 1.16667 1.76159 2.21083 1.74992 3.5C1.76159 4.78917 2.81625 5.83333 4.08325 5.83333M4.08325 5.83333H4.66659M4.08325 5.83333C2.16525 5.83333 0.583252 7.40017 0.583252 9.33334V10.5" stroke="#181616"/>
</svg>
