<svg width="16" height="16" viewBox="0 0 16 16" fill="none" xmlns="http://www.w3.org/2000/svg">
<path d="M8.86663 11.5167C8.73329 11.3833 8.66929 11.2222 8.67463 11.0333C8.6804 10.8444 8.74996 10.6833 8.88329 10.55L10.7666 8.66666H3.33329C3.1444 8.66666 2.98596 8.60266 2.85796 8.47466C2.7304 8.3471 2.66663 8.18888 2.66663 7.99999C2.66663 7.8111 2.7304 7.65266 2.85796 7.52466C2.98596 7.3971 3.1444 7.33333 3.33329 7.33333H10.7666L8.86663 5.43332C8.73329 5.29999 8.66663 5.14155 8.66663 4.95799C8.66663 4.77488 8.73329 4.61666 8.86663 4.48333C8.99996 4.34999 9.1584 4.28333 9.34196 4.28333C9.52507 4.28333 9.68329 4.34999 9.81663 4.48333L12.8666 7.53333C12.9333 7.59999 12.9806 7.67221 13.0086 7.74999C13.0362 7.82777 13.05 7.9111 13.05 7.99999C13.05 8.08888 13.0362 8.17221 13.0086 8.24999C12.9806 8.32777 12.9333 8.39999 12.8666 8.46666L9.79996 11.5333C9.67774 11.6555 9.52507 11.7167 9.34196 11.7167C9.1584 11.7167 8.99996 11.65 8.86663 11.5167Z" fill="#FC5F6A"/>
</svg>
