<svg width="13" height="11" viewBox="0 0 13 11" fill="none" xmlns="http://www.w3.org/2000/svg">
<path d="M1.625 0.6875H3.81113L3.83652 0.708984L7.06113 3.4375H4.72266L4.69727 3.41602L1.47773 0.693945C1.52598 0.689648 1.57422 0.6875 1.625 0.6875ZM0 3.4375V2.0625C0 1.73809 0.13457 1.4373 0.355469 1.20312L2.99609 3.4375H0ZM5.53262 0.6875H7.87363L7.89902 0.708984L11.1236 3.4375H8.78516L8.75977 3.41602L5.53516 0.6875H5.53262ZM11.375 0.6875C12.2713 0.6875 13 1.3041 13 2.0625V3.4375H12.8451L12.8197 3.41602L9.59512 0.6875H11.375ZM0 4.125H13V8.9375C13 9.6959 12.2713 10.3125 11.375 10.3125H1.625C0.728711 10.3125 0 9.6959 0 8.9375V4.125Z" fill="black"/>
</svg>
