<svg width="70" height="70" viewBox="0 0 70 70" fill="none" xmlns="http://www.w3.org/2000/svg">
<path d="M30.8736 38.9486L33.3922 37.4933L30.126 34.7458L30.8736 38.9486Z" fill="#E7242D"/>
<path d="M61.9905 34.9719C61.9905 34.3524 61.686 33.8078 61.2226 33.4662L61.2324 33.4494L54.7056 29.6813L58.4625 23.1741L58.4499 23.1664C58.5686 22.8982 58.6224 22.6059 58.6069 22.313C58.5915 22.0201 58.5072 21.735 58.361 21.4808C58.2137 21.2268 58.0086 21.0112 57.7623 20.8514C57.516 20.6915 57.2355 20.5921 56.9435 20.561V20.5428H49.4059V13.0269H49.3905C49.3591 12.7353 49.2595 12.4552 49.0997 12.2093C48.9399 11.9634 48.7244 11.7586 48.4707 11.6115C48.2161 11.4649 47.9304 11.3805 47.637 11.3653C47.3436 11.3501 47.0507 11.4045 46.7823 11.524L46.7732 11.5079L40.1365 15.3397L36.4615 8.97392L36.4482 8.98162C36.2752 8.74483 36.0489 8.55211 35.7875 8.41907C35.5262 8.28603 35.2372 8.2164 34.9439 8.21582C34.3244 8.21582 33.7791 8.52032 33.4382 8.98372L33.4214 8.97392L29.6855 15.4447L23.2525 11.7305L23.2448 11.7438C22.9766 11.6252 22.6842 11.5714 22.3914 11.5868C22.0985 11.6023 21.8134 11.6865 21.5592 11.8327C21.3051 11.9799 21.0892 12.185 20.9293 12.4313C20.7693 12.6776 20.6698 12.9582 20.6387 13.2502H20.6198V20.722H13.1914V20.7367C12.8998 20.7681 12.6197 20.8677 12.3738 21.0275C12.1279 21.1873 11.9231 21.4028 11.776 21.6565C11.6297 21.911 11.5455 22.1964 11.5302 22.4895C11.5149 22.7826 11.5689 23.0752 11.6878 23.3435L11.6717 23.3533L15.3439 29.7142L8.76811 33.511L8.77581 33.5243C8.53902 33.6973 8.3463 33.9237 8.21326 34.185C8.08022 34.4464 8.01059 34.7354 8.01001 35.0286C8.01001 35.6481 8.31451 36.1934 8.77791 36.5343L8.76811 36.5511L15.2949 40.3192L11.538 46.8264L11.5506 46.8334C11.4319 47.1016 11.3782 47.394 11.3936 47.6868C11.409 47.9797 11.4933 48.2648 11.6395 48.519C11.7868 48.773 11.9919 48.9887 12.2382 49.1485C12.4845 49.3083 12.7651 49.4078 13.057 49.4388V49.4577H20.5939V56.9729H20.6093C20.6737 57.5441 20.9936 58.0789 21.5291 58.3883C21.7838 58.5348 22.0694 58.6191 22.3628 58.6343C22.6562 58.6495 22.9491 58.5952 23.2175 58.4758L23.2266 58.4919L29.8633 54.6601L33.5383 61.0259L33.5516 61.0182C33.7246 61.255 33.951 61.4477 34.2123 61.5808C34.4736 61.7138 34.7627 61.7834 35.0559 61.784C35.6754 61.784 36.2207 61.4795 36.5616 61.0168L36.5777 61.0259L40.3136 54.5551L46.7473 58.2693L46.755 58.256C47.0232 58.3747 47.3156 58.4285 47.6084 58.413C47.9013 58.3976 48.1864 58.3133 48.4406 58.1671C48.6948 58.02 48.9107 57.815 49.0707 57.5686C49.2306 57.3223 49.3301 57.0417 49.3611 56.7496H49.38V49.2785H56.8091V49.2638C57.1007 49.2325 57.3808 49.1328 57.6267 48.973C57.8726 48.8132 58.0774 48.5977 58.2245 48.344C58.3708 48.0896 58.455 47.8042 58.4703 47.5111C58.4857 47.218 58.4317 46.9254 58.3127 46.657L58.3288 46.6479L54.6566 40.287L61.2324 36.4902L61.2247 36.4769C61.4615 36.3038 61.6542 36.0773 61.7873 35.8158C61.9203 35.5544 61.9899 35.2653 61.9905 34.9719ZM26.2758 45.6378C24.7148 46.5394 23.2994 46.6626 22.0961 46.3392L22.2648 44.4513C23.1762 44.7152 24.3543 44.7138 25.4673 44.0705C26.4242 43.5182 26.6279 42.835 26.3556 42.3639C25.5443 40.9597 21.4612 44.6249 19.7063 41.5862C18.9307 40.2422 19.4494 38.4565 21.3513 37.3589C22.6344 36.6176 23.9238 36.3908 25.1495 36.6673L24.9332 38.5034C23.9301 38.2766 22.8976 38.5006 22.0744 38.9752C21.3478 39.3952 21.1175 39.9475 21.3975 40.4326C22.1318 41.7038 26.273 38.1674 28.0132 41.1809C28.8665 42.6572 28.4444 44.3869 26.2758 45.6378ZM36.0359 39.8096L34.7381 38.7351L31.2752 40.7343L31.5559 42.3961L29.6064 43.521L28.0559 33.6489L30.2112 32.405L37.9854 38.6847L36.0359 39.8096ZM38.663 38.2934L34.0003 30.2168L35.7321 29.2165L39.5212 35.779L42.9358 33.8078L43.8101 35.3219L38.663 38.2934ZM44.9714 34.6513L40.3087 26.5754L46.0235 23.2749L46.8971 24.7883L42.9022 27.0955L43.8808 28.7909L47.791 26.5327L48.6646 28.0461L44.7544 30.3036L45.817 32.1446L49.8126 29.8374L50.6869 31.3508L44.9714 34.6513Z" fill="#E7242D"/>
</svg>
